# xmcd
#
# Track frame offsets:
#	150
#	13356
#	23801
#	30482
#	40996
#	45350
#	54025
#	66350
#	71270
#	79668
#	91974
#	96296
#	108115
#	117570
#	127734
#	133477
#	151343
#	161177
#	168988
#	177105
#	190364
#	203744
#
# Disc length: 2852 seconds
#
# Revision: 1
# Processed by: cddbd v1.5.1PL2 Copyright (c) Steve Scherf et al.
# Submitted via: audiograbber 1.81.02
#
DISCID=220b2216
DTITLE=Gero Philippsen - Die Ostermäuse (www.gerth.de)
DYEAR=2006
DGENRE=Musical
TTITLE0=Spielszene
TTITLE1=Habt ihr gehört
TTITLE2=Spielszene
TTITLE3=Er kommt
TTITLE4=Spielszene
TTITLE5=All uns're Hoffnung
TTITLE6=Spielszene
TTITLE7=Raus mit euch!
TTITLE8=Spielszene
TTITLE9=Jesus ist korrekt
TTITLE10=Spielszene
TTITLE11=Mich hat von Herzen verlangt
TTITLE12=Spielszene
TTITLE13=Das kann nicht sein
TTITLE14=Spielszene
TTITLE15=Was ist nur los, was hab ich getan?
TTITLE16=Spielszene
TTITLE17=Instrumentalstück: Was ist nur los
TTITLE18=Spielszene
TTITLE19=Jesus ist auferstanden
TTITLE20=Spielszene
TTITLE21=Jesus ist König
EXTD=
EXTT0=
EXTT1=
EXTT2=
EXTT3=
EXTT4=
EXTT5=
EXTT6=
EXTT7=
EXTT8=
EXTT9=
EXTT10=
EXTT11=
EXTT12=
EXTT13=
EXTT14=
EXTT15=
EXTT16=
EXTT17=
EXTT18=
EXTT19=
EXTT20=
EXTT21=
PLAYORDER=
